<svg id="master-artboard" class="js-toggle-share" version="1.1" x="0px" style="enable-background:new 0 0 1400 980;" height="84.50666809082031px" width="84.6933364868164px" viewBox="0 0 84.6933364868164 84.50666809082031" fill="none" xmlns="http://www.w3.org/2000/svg"><rect id="ee-background" x="0" y="0" width="84.6933364868164" height="84.50666809082031" style="fill: white; fill-opacity: 0; pointer-events: none;"/>
<g filter="url(#filter0_d)" transform="matrix(1, 0, 0, 1, -7.839999900309252, -5.7866665930854)">
<path d="M 12 6 H 88 A 4 4 0 0 1 92 10 V 86 A 4 4 0 0 1 88 90 H 12 A 4 4 0 0 1 8 86 V 10 A 4 4 0 0 1 12 6 Z" fill="white"/>
<path d="M 12 6.5 H 88 A 3.5 3.5 0 0 1 91.5 10 V 86 A 3.5 3.5 0 0 1 88 89.5 H 12 A 3.5 3.5 0 0 1 8.5 86 V 10 A 3.5 3.5 0 0 1 12 6.5 Z" stroke="black" stroke-opacity="0.1"/>
</g>
<path d="M 19 14.5 A 2.5 2.5 0 0 1 16.5 17 A 2.5 2.5 0 0 1 14 14.5 A 2.5 2.5 0 0 1 16.5 12 A 2.5 2.5 0 0 1 19 14.5 Z" fill="white" transform="matrix(1, 0, 0, 1, -7.839999900309252, -5.7866665930854)"/>
<path d="M 19.5 14.5 A 3 3 0 0 1 16.5 17.5 A 3 3 0 0 1 13.5 14.5 A 3 3 0 0 1 16.5 11.5 A 3 3 0 0 1 19.5 14.5 Z" stroke="black" stroke-opacity="0.1" transform="matrix(1, 0, 0, 1, -7.839999900309252, -5.7866665930854)"/>
<path d="M 19 24.5 A 2.5 2.5 0 0 1 16.5 27 A 2.5 2.5 0 0 1 14 24.5 A 2.5 2.5 0 0 1 16.5 22 A 2.5 2.5 0 0 1 19 24.5 Z" fill="white" transform="matrix(1, 0, 0, 1, -7.839999900309252, -5.7866665930854)"/>
<path d="M 19.5 24.5 A 3 3 0 0 1 16.5 27.5 A 3 3 0 0 1 13.5 24.5 A 3 3 0 0 1 16.5 21.5 A 3 3 0 0 1 19.5 24.5 Z" stroke="black" stroke-opacity="0.1" transform="matrix(1, 0, 0, 1, -7.839999900309252, -5.7866665930854)"/>
<path d="M 19 34.5 A 2.5 2.5 0 0 1 16.5 37 A 2.5 2.5 0 0 1 14 34.5 A 2.5 2.5 0 0 1 16.5 32 A 2.5 2.5 0 0 1 19 34.5 Z" fill="white" transform="matrix(1, 0, 0, 1, -7.839999900309252, -5.7866665930854)"/>
<path d="M 19.5 34.5 A 3 3 0 0 1 16.5 37.5 A 3 3 0 0 1 13.5 34.5 A 3 3 0 0 1 16.5 31.5 A 3 3 0 0 1 19.5 34.5 Z" stroke="black" stroke-opacity="0.1" transform="matrix(1, 0, 0, 1, -7.839999900309252, -5.7866665930854)"/>
<path d="M 19 44.5 A 2.5 2.5 0 0 1 16.5 47 A 2.5 2.5 0 0 1 14 44.5 A 2.5 2.5 0 0 1 16.5 42 A 2.5 2.5 0 0 1 19 44.5 Z" fill="white" transform="matrix(1, 0, 0, 1, -7.839999900309252, -5.7866665930854)"/>
<path d="M 19.5 44.5 A 3 3 0 0 1 16.5 47.5 A 3 3 0 0 1 13.5 44.5 A 3 3 0 0 1 16.5 41.5 A 3 3 0 0 1 19.5 44.5 Z" stroke="black" stroke-opacity="0.1" transform="matrix(1, 0, 0, 1, -7.839999900309252, -5.7866665930854)"/>
<path d="M 19 54.5 A 2.5 2.5 0 0 1 16.5 57 A 2.5 2.5 0 0 1 14 54.5 A 2.5 2.5 0 0 1 16.5 52 A 2.5 2.5 0 0 1 19 54.5 Z" fill="white" transform="matrix(1, 0, 0, 1, -7.839999900309252, -5.7866665930854)"/>
<path d="M 19.5 54.5 A 3 3 0 0 1 16.5 57.5 A 3 3 0 0 1 13.5 54.5 A 3 3 0 0 1 16.5 51.5 A 3 3 0 0 1 19.5 54.5 Z" stroke="black" stroke-opacity="0.1" transform="matrix(1, 0, 0, 1, -7.839999900309252, -5.7866665930854)"/>
<path d="M 19 64.5 A 2.5 2.5 0 0 1 16.5 67 A 2.5 2.5 0 0 1 14 64.5 A 2.5 2.5 0 0 1 16.5 62 A 2.5 2.5 0 0 1 19 64.5 Z" fill="white" transform="matrix(1, 0, 0, 1, -7.839999900309252, -5.7866665930854)"/>
<path d="M 19.5 64.5 A 3 3 0 0 1 16.5 67.5 A 3 3 0 0 1 13.5 64.5 A 3 3 0 0 1 16.5 61.5 A 3 3 0 0 1 19.5 64.5 Z" stroke="black" stroke-opacity="0.1" transform="matrix(1, 0, 0, 1, -7.839999900309252, -5.7866665930854)"/>
<path d="M 19 74.5 A 2.5 2.5 0 0 1 16.5 77 A 2.5 2.5 0 0 1 14 74.5 A 2.5 2.5 0 0 1 16.5 72 A 2.5 2.5 0 0 1 19 74.5 Z" fill="white" transform="matrix(1, 0, 0, 1, -7.839999900309252, -5.7866665930854)"/>
<path d="M 19.5 74.5 A 3 3 0 0 1 16.5 77.5 A 3 3 0 0 1 13.5 74.5 A 3 3 0 0 1 16.5 71.5 A 3 3 0 0 1 19.5 74.5 Z" stroke="black" stroke-opacity="0.1" transform="matrix(1, 0, 0, 1, -7.839999900309252, -5.7866665930854)"/>
<path d="M 24 6 H 25 V 90 H 24 V 6 Z" opacity="0.2" fill="#FF3B30" transform="matrix(1, 0, 0, 1, -7.839999900309252, -5.7866665930854)"/>
<defs>
<filter id="filter0_d" x="0" y="0" width="100" height="100" filterUnits="userSpaceOnUse" color-interpolation-filters="sRGB">
<feFlood flood-opacity="0" result="BackgroundImageFix"/>
<feColorMatrix in="SourceAlpha" type="matrix" values="0 0 0 0 0 0 0 0 0 0 0 0 0 0 0 0 0 0 127 0"/>
<feOffset dy="2"/>
<feGaussianBlur stdDeviation="4"/>
<feColorMatrix type="matrix" values="0 0 0 0 0 0 0 0 0 0 0 0 0 0 0 0 0 0 0.05 0"/>
<feBlend mode="normal" in2="BackgroundImageFix" result="effect1_dropShadow"/>
<feBlend mode="normal" in="SourceGraphic" in2="effect1_dropShadow" result="shape"/>
</filter>
</defs>
</svg>
